<svg width="2586" height="1419" viewBox="0 0 2586 1419" fill="none" xmlns="http://www.w3.org/2000/svg">
<rect width="2586" height="1419" fill="url(#paint0_linear_444_41)"/>
<path d="M245.7 868H255.7V938H245.7V868ZM205.5 938H195.5V868H205.5V938ZM246.6 906.8H204.5V898.1H246.6V906.8ZM275.252 938V885H284.852V938H275.252ZM280.052 874.8C278.186 874.8 276.619 874.2 275.352 873C274.152 871.8 273.552 870.333 273.552 868.6C273.552 866.8 274.152 865.3 275.352 864.1C276.619 862.9 278.186 862.3 280.052 862.3C281.919 862.3 283.452 862.9 284.652 864.1C285.919 865.233 286.552 866.667 286.552 868.4C286.552 870.2 285.952 871.733 284.752 873C283.552 874.2 281.986 874.8 280.052 874.8ZM326.382 958C321.515 958 316.782 957.3 312.182 955.9C307.649 954.567 303.949 952.633 301.082 950.1L305.682 942.7C308.149 944.833 311.182 946.5 314.782 947.7C318.382 948.967 322.149 949.6 326.082 949.6C332.349 949.6 336.949 948.133 339.882 945.2C342.815 942.267 344.282 937.8 344.282 931.8V920.6L345.282 910.1L344.782 899.5V885H353.882V930.8C353.882 940.133 351.549 947 346.882 951.4C342.215 955.8 335.382 958 326.382 958ZM325.182 935.8C320.049 935.8 315.449 934.733 311.382 932.6C307.382 930.4 304.182 927.367 301.782 923.5C299.449 919.633 298.282 915.167 298.282 910.1C298.282 904.967 299.449 900.5 301.782 896.7C304.182 892.833 307.382 889.833 311.382 887.7C315.449 885.567 320.049 884.5 325.182 884.5C329.715 884.5 333.849 885.433 337.582 887.3C341.315 889.1 344.282 891.9 346.482 895.7C348.749 899.5 349.882 904.3 349.882 910.1C349.882 915.833 348.749 920.6 346.482 924.4C344.282 928.2 341.315 931.067 337.582 933C333.849 934.867 329.715 935.8 325.182 935.8ZM326.282 927.4C329.815 927.4 332.949 926.667 335.682 925.2C338.415 923.733 340.549 921.7 342.082 919.1C343.682 916.5 344.482 913.5 344.482 910.1C344.482 906.7 343.682 903.7 342.082 901.1C340.549 898.5 338.415 896.5 335.682 895.1C332.949 893.633 329.815 892.9 326.282 892.9C322.749 892.9 319.582 893.633 316.782 895.1C314.049 896.5 311.882 898.5 310.282 901.1C308.749 903.7 307.982 906.7 307.982 910.1C307.982 913.5 308.749 916.5 310.282 919.1C311.882 921.7 314.049 923.733 316.782 925.2C319.582 926.667 322.749 927.4 326.282 927.4ZM400.525 884.5C404.858 884.5 408.658 885.333 411.925 887C415.258 888.667 417.858 891.2 419.725 894.6C421.592 898 422.525 902.3 422.525 907.5V938H412.925V908.6C412.925 903.467 411.658 899.6 409.125 897C406.658 894.4 403.158 893.1 398.625 893.1C395.225 893.1 392.258 893.767 389.725 895.1C387.192 896.433 385.225 898.4 383.825 901C382.492 903.6 381.825 906.833 381.825 910.7V938H372.225V863.8H381.825V899.3L379.925 895.5C381.658 892.033 384.325 889.333 387.925 887.4C391.525 885.467 395.725 884.5 400.525 884.5ZM468.547 938V868H495.847C501.98 868 507.214 868.967 511.547 870.9C515.88 872.833 519.214 875.633 521.547 879.3C523.88 882.967 525.047 887.333 525.047 892.4C525.047 897.467 523.88 901.833 521.547 905.5C519.214 909.1 515.88 911.9 511.547 913.9C507.214 915.833 501.98 916.8 495.847 916.8H474.047L478.547 912.1V938H468.547ZM478.547 913.1L474.047 908.1H495.547C501.947 908.1 506.78 906.733 510.047 904C513.38 901.267 515.047 897.4 515.047 892.4C515.047 887.4 513.38 883.533 510.047 880.8C506.78 878.067 501.947 876.7 495.547 876.7H474.047L478.547 871.7V913.1ZM561.743 938.6C556.076 938.6 551.076 937.433 546.743 935.1C542.476 932.767 539.143 929.567 536.743 925.5C534.41 921.433 533.243 916.767 533.243 911.5C533.243 906.233 534.376 901.567 536.643 897.5C538.976 893.433 542.143 890.267 546.143 888C550.21 885.667 554.776 884.5 559.843 884.5C564.976 884.5 569.51 885.633 573.443 887.9C577.376 890.167 580.443 893.367 582.643 897.5C584.91 901.567 586.043 906.333 586.043 911.8C586.043 912.2 586.01 912.667 585.943 913.2C585.943 913.733 585.91 914.233 585.843 914.7H540.743V907.8H580.843L576.943 910.2C577.01 906.8 576.31 903.767 574.843 901.1C573.376 898.433 571.343 896.367 568.743 894.9C566.21 893.367 563.243 892.6 559.843 892.6C556.51 892.6 553.543 893.367 550.943 894.9C548.343 896.367 546.31 898.467 544.843 901.2C543.376 903.867 542.643 906.933 542.643 910.4V912C542.643 915.533 543.443 918.7 545.043 921.5C546.71 924.233 549.01 926.367 551.943 927.9C554.876 929.433 558.243 930.2 562.043 930.2C565.176 930.2 568.01 929.667 570.543 928.6C573.143 927.533 575.41 925.933 577.343 923.8L582.643 930C580.243 932.8 577.243 934.933 573.643 936.4C570.11 937.867 566.143 938.6 561.743 938.6ZM599.373 938V885H608.573V899.4L607.673 895.8C609.14 892.133 611.607 889.333 615.073 887.4C618.54 885.467 622.807 884.5 627.873 884.5V893.8C627.473 893.733 627.073 893.7 626.673 893.7C626.34 893.7 626.007 893.7 625.673 893.7C620.54 893.7 616.473 895.233 613.473 898.3C610.473 901.367 608.973 905.8 608.973 911.6V938H599.373ZM641.789 938V880.3C641.789 875.1 643.289 870.967 646.289 867.9C649.356 864.767 653.689 863.2 659.289 863.2C661.356 863.2 663.322 863.467 665.189 864C667.122 864.467 668.756 865.233 670.089 866.3L667.189 873.6C666.189 872.8 665.056 872.2 663.789 871.8C662.522 871.333 661.189 871.1 659.789 871.1C656.989 871.1 654.856 871.9 653.389 873.5C651.922 875.033 651.189 877.333 651.189 880.4V887.5L651.389 891.9V938H641.789ZM632.789 892.9V885H666.589V892.9H632.789ZM697.562 938.6C692.228 938.6 687.495 937.433 683.362 935.1C679.228 932.767 675.962 929.567 673.562 925.5C671.162 921.367 669.962 916.7 669.962 911.5C669.962 906.233 671.162 901.567 673.562 897.5C675.962 893.433 679.228 890.267 683.362 888C687.495 885.667 692.228 884.5 697.562 884.5C702.828 884.5 707.528 885.667 711.662 888C715.862 890.267 719.128 893.433 721.462 897.5C723.862 901.5 725.062 906.167 725.062 911.5C725.062 916.767 723.862 921.433 721.462 925.5C719.128 929.567 715.862 932.767 711.662 935.1C707.528 937.433 702.828 938.6 697.562 938.6ZM697.562 930.2C700.962 930.2 703.995 929.433 706.662 927.9C709.395 926.367 711.528 924.2 713.062 921.4C714.595 918.533 715.362 915.233 715.362 911.5C715.362 907.7 714.595 904.433 713.062 901.7C711.528 898.9 709.395 896.733 706.662 895.2C703.995 893.667 700.962 892.9 697.562 892.9C694.162 892.9 691.128 893.667 688.462 895.2C685.795 896.733 683.662 898.9 682.062 901.7C680.462 904.433 679.662 907.7 679.662 911.5C679.662 915.233 680.462 918.533 682.062 921.4C683.662 924.2 685.795 926.367 688.462 927.9C691.128 929.433 694.162 930.2 697.562 930.2ZM738.338 938V885H747.538V899.4L746.638 895.8C748.105 892.133 750.572 889.333 754.038 887.4C757.505 885.467 761.772 884.5 766.838 884.5V893.8C766.438 893.733 766.038 893.7 765.638 893.7C765.305 893.7 764.972 893.7 764.638 893.7C759.505 893.7 755.438 895.233 752.438 898.3C749.438 901.367 747.938 905.8 747.938 911.6V938H738.338ZM844.97 884.5C849.237 884.5 853.004 885.333 856.27 887C859.537 888.667 862.07 891.2 863.87 894.6C865.737 898 866.67 902.3 866.67 907.5V938H857.07V908.6C857.07 903.467 855.87 899.6 853.47 897C851.07 894.4 847.704 893.1 843.37 893.1C840.17 893.1 837.37 893.767 834.97 895.1C832.57 896.433 830.704 898.4 829.37 901C828.104 903.6 827.47 906.833 827.47 910.7V938H817.87V908.6C817.87 903.467 816.67 899.6 814.27 897C811.937 894.4 808.57 893.1 804.17 893.1C801.037 893.1 798.27 893.767 795.87 895.1C793.47 896.433 791.604 898.4 790.27 901C788.937 903.6 788.27 906.833 788.27 910.7V938H778.67V885H787.87V899.1L786.37 895.5C788.037 892.033 790.604 889.333 794.07 887.4C797.537 885.467 801.57 884.5 806.17 884.5C811.237 884.5 815.604 885.767 819.27 888.3C822.937 890.767 825.337 894.533 826.47 899.6L822.57 898C824.17 893.933 826.97 890.667 830.97 888.2C834.97 885.733 839.637 884.5 844.97 884.5ZM917.234 938V926.8L916.734 924.7V905.6C916.734 901.533 915.534 898.4 913.134 896.2C910.801 893.933 907.268 892.8 902.534 892.8C899.401 892.8 896.334 893.333 893.334 894.4C890.334 895.4 887.801 896.767 885.734 898.5L881.734 891.3C884.468 889.1 887.734 887.433 891.534 886.3C895.401 885.1 899.434 884.5 903.634 884.5C910.901 884.5 916.501 886.267 920.434 889.8C924.368 893.333 926.334 898.733 926.334 906V938H917.234ZM899.834 938.6C895.901 938.6 892.434 937.933 889.434 936.6C886.501 935.267 884.234 933.433 882.634 931.1C881.034 928.7 880.234 926 880.234 923C880.234 920.133 880.901 917.533 882.234 915.2C883.634 912.867 885.868 911 888.934 909.6C892.068 908.2 896.268 907.5 901.534 907.5H918.334V914.4H901.934C897.134 914.4 893.901 915.2 892.234 916.8C890.568 918.4 889.734 920.333 889.734 922.6C889.734 925.2 890.768 927.3 892.834 928.9C894.901 930.433 897.768 931.2 901.434 931.2C905.034 931.2 908.168 930.4 910.834 928.8C913.568 927.2 915.534 924.867 916.734 921.8L918.634 928.4C917.368 931.533 915.134 934.033 911.934 935.9C908.734 937.7 904.701 938.6 899.834 938.6ZM972.4 884.5C976.733 884.5 980.533 885.333 983.8 887C987.133 888.667 989.733 891.2 991.6 894.6C993.467 898 994.4 902.3 994.4 907.5V938H984.8V908.6C984.8 903.467 983.533 899.6 981 897C978.533 894.4 975.033 893.1 970.5 893.1C967.1 893.1 964.133 893.767 961.6 895.1C959.067 896.433 957.1 898.4 955.7 901C954.367 903.6 953.7 906.833 953.7 910.7V938H944.1V885H953.3V899.3L951.8 895.5C953.533 892.033 956.2 889.333 959.8 887.4C963.4 885.467 967.6 884.5 972.4 884.5ZM1035.27 938.6C1029.87 938.6 1025.03 937.433 1020.77 935.1C1016.57 932.767 1013.27 929.567 1010.87 925.5C1008.47 921.433 1007.27 916.767 1007.27 911.5C1007.27 906.233 1008.47 901.567 1010.87 897.5C1013.27 893.433 1016.57 890.267 1020.77 888C1025.03 885.667 1029.87 884.5 1035.27 884.5C1040.07 884.5 1044.33 885.467 1048.07 887.4C1051.87 889.267 1054.8 892.067 1056.87 895.8L1049.57 900.5C1047.83 897.9 1045.7 896 1043.17 894.8C1040.7 893.533 1038.03 892.9 1035.17 892.9C1031.7 892.9 1028.6 893.667 1025.87 895.2C1023.13 896.733 1020.97 898.9 1019.37 901.7C1017.77 904.433 1016.97 907.7 1016.97 911.5C1016.97 915.3 1017.77 918.6 1019.37 921.4C1020.97 924.2 1023.13 926.367 1025.87 927.9C1028.6 929.433 1031.7 930.2 1035.17 930.2C1038.03 930.2 1040.7 929.6 1043.17 928.4C1045.7 927.133 1047.83 925.2 1049.57 922.6L1056.87 927.2C1054.8 930.867 1051.87 933.7 1048.07 935.7C1044.33 937.633 1040.07 938.6 1035.27 938.6ZM1092.11 938.6C1086.45 938.6 1081.45 937.433 1077.11 935.1C1072.85 932.767 1069.51 929.567 1067.11 925.5C1064.78 921.433 1063.61 916.767 1063.61 911.5C1063.61 906.233 1064.75 901.567 1067.01 897.5C1069.35 893.433 1072.51 890.267 1076.51 888C1080.58 885.667 1085.15 884.5 1090.21 884.5C1095.35 884.5 1099.88 885.633 1103.81 887.9C1107.75 890.167 1110.81 893.367 1113.01 897.5C1115.28 901.567 1116.41 906.333 1116.41 911.8C1116.41 912.2 1116.38 912.667 1116.31 913.2C1116.31 913.733 1116.28 914.233 1116.21 914.7H1071.11V907.8H1111.21L1107.31 910.2C1107.38 906.8 1106.68 903.767 1105.21 901.1C1103.75 898.433 1101.71 896.367 1099.11 894.9C1096.58 893.367 1093.61 892.6 1090.21 892.6C1086.88 892.6 1083.91 893.367 1081.31 894.9C1078.71 896.367 1076.68 898.467 1075.21 901.2C1073.75 903.867 1073.01 906.933 1073.01 910.4V912C1073.01 915.533 1073.81 918.7 1075.41 921.5C1077.08 924.233 1079.38 926.367 1082.31 927.9C1085.25 929.433 1088.61 930.2 1092.41 930.2C1095.55 930.2 1098.38 929.667 1100.91 928.6C1103.51 927.533 1105.78 925.933 1107.71 923.8L1113.01 930C1110.61 932.8 1107.61 934.933 1104.01 936.4C1100.48 937.867 1096.51 938.6 1092.11 938.6ZM1189.3 938.8C1183.97 938.8 1179.03 937.933 1174.5 936.2C1170.03 934.4 1166.13 931.9 1162.8 928.7C1159.53 925.433 1156.97 921.633 1155.1 917.3C1153.23 912.967 1152.3 908.2 1152.3 903C1152.3 897.8 1153.23 893.033 1155.1 888.7C1156.97 884.367 1159.57 880.6 1162.9 877.4C1166.23 874.133 1170.13 871.633 1174.6 869.9C1179.13 868.1 1184.07 867.2 1189.4 867.2C1194.8 867.2 1199.77 868.133 1204.3 870C1208.9 871.8 1212.8 874.5 1216 878.1L1209.5 884.4C1206.83 881.6 1203.83 879.533 1200.5 878.2C1197.17 876.8 1193.6 876.1 1189.8 876.1C1185.87 876.1 1182.2 876.767 1178.8 878.1C1175.47 879.433 1172.57 881.3 1170.1 883.7C1167.63 886.1 1165.7 888.967 1164.3 892.3C1162.97 895.567 1162.3 899.133 1162.3 903C1162.3 906.867 1162.97 910.467 1164.3 913.8C1165.7 917.067 1167.63 919.9 1170.1 922.3C1172.57 924.7 1175.47 926.567 1178.8 927.9C1182.2 929.233 1185.87 929.9 1189.8 929.9C1193.6 929.9 1197.17 929.233 1200.5 927.9C1203.83 926.5 1206.83 924.367 1209.5 921.5L1216 927.8C1212.8 931.4 1208.9 934.133 1204.3 936C1199.77 937.867 1194.77 938.8 1189.3 938.8ZM1249.32 938.6C1243.99 938.6 1239.25 937.433 1235.12 935.1C1230.99 932.767 1227.72 929.567 1225.32 925.5C1222.92 921.367 1221.72 916.7 1221.72 911.5C1221.72 906.233 1222.92 901.567 1225.32 897.5C1227.72 893.433 1230.99 890.267 1235.12 888C1239.25 885.667 1243.99 884.5 1249.32 884.5C1254.59 884.5 1259.29 885.667 1263.42 888C1267.62 890.267 1270.89 893.433 1273.22 897.5C1275.62 901.5 1276.82 906.167 1276.82 911.5C1276.82 916.767 1275.62 921.433 1273.22 925.5C1270.89 929.567 1267.62 932.767 1263.42 935.1C1259.29 937.433 1254.59 938.6 1249.32 938.6ZM1249.32 930.2C1252.72 930.2 1255.75 929.433 1258.42 927.9C1261.15 926.367 1263.29 924.2 1264.82 921.4C1266.35 918.533 1267.12 915.233 1267.12 911.5C1267.12 907.7 1266.35 904.433 1264.82 901.7C1263.29 898.9 1261.15 896.733 1258.42 895.2C1255.75 893.667 1252.72 892.9 1249.32 892.9C1245.92 892.9 1242.89 893.667 1240.22 895.2C1237.55 896.733 1235.42 898.9 1233.82 901.7C1232.22 904.433 1231.42 907.7 1231.42 911.5C1231.42 915.233 1232.22 918.533 1233.82 921.4C1235.42 924.2 1237.55 926.367 1240.22 927.9C1242.89 929.433 1245.92 930.2 1249.32 930.2ZM1356.4 884.5C1360.66 884.5 1364.43 885.333 1367.7 887C1370.96 888.667 1373.5 891.2 1375.3 894.6C1377.16 898 1378.1 902.3 1378.1 907.5V938H1368.5V908.6C1368.5 903.467 1367.3 899.6 1364.9 897C1362.5 894.4 1359.13 893.1 1354.8 893.1C1351.6 893.1 1348.8 893.767 1346.4 895.1C1344 896.433 1342.13 898.4 1340.8 901C1339.53 903.6 1338.9 906.833 1338.9 910.7V938H1329.3V908.6C1329.3 903.467 1328.1 899.6 1325.7 897C1323.36 894.4 1320 893.1 1315.6 893.1C1312.46 893.1 1309.7 893.767 1307.3 895.1C1304.9 896.433 1303.03 898.4 1301.7 901C1300.36 903.6 1299.7 906.833 1299.7 910.7V938H1290.1V885H1299.3V899.1L1297.8 895.5C1299.46 892.033 1302.03 889.333 1305.5 887.4C1308.96 885.467 1313 884.5 1317.6 884.5C1322.66 884.5 1327.03 885.767 1330.7 888.3C1334.36 890.767 1336.76 894.533 1337.9 899.6L1334 898C1335.6 893.933 1338.4 890.667 1342.4 888.2C1346.4 885.733 1351.06 884.5 1356.4 884.5ZM1423.86 938.6C1419.46 938.6 1415.43 937.6 1411.76 935.6C1408.16 933.533 1405.26 930.5 1403.06 926.5C1400.93 922.5 1399.86 917.5 1399.86 911.5C1399.86 905.5 1400.89 900.5 1402.96 896.5C1405.09 892.5 1407.96 889.5 1411.56 887.5C1415.23 885.5 1419.33 884.5 1423.86 884.5C1429.06 884.5 1433.66 885.633 1437.66 887.9C1441.66 890.167 1444.83 893.333 1447.16 897.4C1449.49 901.4 1450.66 906.1 1450.66 911.5C1450.66 916.9 1449.49 921.633 1447.16 925.7C1444.83 929.767 1441.66 932.933 1437.66 935.2C1433.66 937.467 1429.06 938.6 1423.86 938.6ZM1395.76 957.4V885H1404.96V899.3L1404.36 911.6L1405.36 923.9V957.4H1395.76ZM1423.06 930.2C1426.46 930.2 1429.49 929.433 1432.16 927.9C1434.89 926.367 1437.03 924.2 1438.56 921.4C1440.16 918.533 1440.96 915.233 1440.96 911.5C1440.96 907.7 1440.16 904.433 1438.56 901.7C1437.03 898.9 1434.89 896.733 1432.16 895.2C1429.49 893.667 1426.46 892.9 1423.06 892.9C1419.73 892.9 1416.69 893.667 1413.96 895.2C1411.29 896.733 1409.16 898.9 1407.56 901.7C1406.03 904.433 1405.26 907.7 1405.26 911.5C1405.26 915.233 1406.03 918.533 1407.56 921.4C1409.16 924.2 1411.29 926.367 1413.96 927.9C1416.69 929.433 1419.73 930.2 1423.06 930.2ZM1486.22 938.6C1481.69 938.6 1477.69 937.767 1474.22 936.1C1470.82 934.433 1468.16 931.9 1466.22 928.5C1464.36 925.033 1463.42 920.7 1463.42 915.5V885H1473.02V914.4C1473.02 919.6 1474.26 923.5 1476.72 926.1C1479.26 928.7 1482.79 930 1487.32 930C1490.66 930 1493.56 929.333 1496.02 928C1498.49 926.6 1500.39 924.6 1501.72 922C1503.06 919.333 1503.72 916.133 1503.72 912.4V885H1513.32V938H1504.22V923.7L1505.72 927.5C1503.99 931.033 1501.39 933.767 1497.92 935.7C1494.46 937.633 1490.56 938.6 1486.22 938.6ZM1549.8 938.6C1544.47 938.6 1540.33 937.167 1537.4 934.3C1534.47 931.433 1533 927.333 1533 922V873.4H1542.6V921.6C1542.6 924.467 1543.3 926.667 1544.7 928.2C1546.17 929.733 1548.23 930.5 1550.9 930.5C1553.9 930.5 1556.4 929.667 1558.4 928L1561.4 934.9C1559.93 936.167 1558.17 937.1 1556.1 937.7C1554.1 938.3 1552 938.6 1549.8 938.6ZM1524 892.9V885H1557.8V892.9H1524ZM1573.01 938V885H1582.61V938H1573.01ZM1577.81 874.8C1575.94 874.8 1574.37 874.2 1573.11 873C1571.91 871.8 1571.31 870.333 1571.31 868.6C1571.31 866.8 1571.91 865.3 1573.11 864.1C1574.37 862.9 1575.94 862.3 1577.81 862.3C1579.67 862.3 1581.21 862.9 1582.41 864.1C1583.67 865.233 1584.31 866.667 1584.31 868.4C1584.31 870.2 1583.71 871.733 1582.51 873C1581.31 874.2 1579.74 874.8 1577.81 874.8ZM1629.24 884.5C1633.57 884.5 1637.37 885.333 1640.64 887C1643.97 888.667 1646.57 891.2 1648.44 894.6C1650.3 898 1651.24 902.3 1651.24 907.5V938H1641.64V908.6C1641.64 903.467 1640.37 899.6 1637.84 897C1635.37 894.4 1631.87 893.1 1627.34 893.1C1623.94 893.1 1620.97 893.767 1618.44 895.1C1615.9 896.433 1613.94 898.4 1612.54 901C1611.2 903.6 1610.54 906.833 1610.54 910.7V938H1600.94V885H1610.14V899.3L1608.64 895.5C1610.37 892.033 1613.04 889.333 1616.64 887.4C1620.24 885.467 1624.44 884.5 1629.24 884.5ZM1692.2 958C1687.34 958 1682.6 957.3 1678 955.9C1673.47 954.567 1669.77 952.633 1666.9 950.1L1671.5 942.7C1673.97 944.833 1677 946.5 1680.6 947.7C1684.2 948.967 1687.97 949.6 1691.9 949.6C1698.17 949.6 1702.77 948.133 1705.7 945.2C1708.64 942.267 1710.1 937.8 1710.1 931.8V920.6L1711.1 910.1L1710.6 899.5V885H1719.7V930.8C1719.7 940.133 1717.37 947 1712.7 951.4C1708.04 955.8 1701.2 958 1692.2 958ZM1691 935.8C1685.87 935.8 1681.27 934.733 1677.2 932.6C1673.2 930.4 1670 927.367 1667.6 923.5C1665.27 919.633 1664.1 915.167 1664.1 910.1C1664.1 904.967 1665.27 900.5 1667.6 896.7C1670 892.833 1673.2 889.833 1677.2 887.7C1681.27 885.567 1685.87 884.5 1691 884.5C1695.54 884.5 1699.67 885.433 1703.4 887.3C1707.14 889.1 1710.1 891.9 1712.3 895.7C1714.57 899.5 1715.7 904.3 1715.7 910.1C1715.7 915.833 1714.57 920.6 1712.3 924.4C1710.1 928.2 1707.14 931.067 1703.4 933C1699.67 934.867 1695.54 935.8 1691 935.8ZM1692.1 927.4C1695.64 927.4 1698.77 926.667 1701.5 925.2C1704.24 923.733 1706.37 921.7 1707.9 919.1C1709.5 916.5 1710.3 913.5 1710.3 910.1C1710.3 906.7 1709.5 903.7 1707.9 901.1C1706.37 898.5 1704.24 896.5 1701.5 895.1C1698.77 893.633 1695.64 892.9 1692.1 892.9C1688.57 892.9 1685.4 893.633 1682.6 895.1C1679.87 896.5 1677.7 898.5 1676.1 901.1C1674.57 903.7 1673.8 906.7 1673.8 910.1C1673.8 913.5 1674.57 916.5 1676.1 919.1C1677.7 921.7 1679.87 923.733 1682.6 925.2C1685.4 926.667 1688.57 927.4 1692.1 927.4ZM195.5 1060V990H203.7L235.1 1042.9H230.7L261.7 990H269.9L270 1060H260.4L260.3 1005.1H262.6L235 1051.5H230.4L202.6 1005.1H205.1V1060H195.5ZM289.608 1060V1007H299.208V1060H289.608ZM294.408 996.8C292.541 996.8 290.974 996.2 289.708 995C288.508 993.8 287.908 992.333 287.908 990.6C287.908 988.8 288.508 987.3 289.708 986.1C290.974 984.9 292.541 984.3 294.408 984.3C296.274 984.3 297.808 984.9 299.008 986.1C300.274 987.233 300.908 988.667 300.908 990.4C300.908 992.2 300.308 993.733 299.108 995C297.908 996.2 296.341 996.8 294.408 996.8ZM317.538 1060V985.8H327.138V1060H317.538ZM368.167 1060.6C362.834 1060.6 358.101 1059.43 353.967 1057.1C349.834 1054.77 346.567 1051.57 344.167 1047.5C341.767 1043.37 340.567 1038.7 340.567 1033.5C340.567 1028.23 341.767 1023.57 344.167 1019.5C346.567 1015.43 349.834 1012.27 353.967 1010C358.101 1007.67 362.834 1006.5 368.167 1006.5C373.434 1006.5 378.134 1007.67 382.267 1010C386.467 1012.27 389.734 1015.43 392.067 1019.5C394.467 1023.5 395.667 1028.17 395.667 1033.5C395.667 1038.77 394.467 1043.43 392.067 1047.5C389.734 1051.57 386.467 1054.77 382.267 1057.1C378.134 1059.43 373.434 1060.6 368.167 1060.6ZM368.167 1052.2C371.567 1052.2 374.601 1051.43 377.267 1049.9C380.001 1048.37 382.134 1046.2 383.667 1043.4C385.201 1040.53 385.967 1037.23 385.967 1033.5C385.967 1029.7 385.201 1026.43 383.667 1023.7C382.134 1020.9 380.001 1018.73 377.267 1017.2C374.601 1015.67 371.567 1014.9 368.167 1014.9C364.767 1014.9 361.734 1015.67 359.067 1017.2C356.401 1018.73 354.267 1020.9 352.667 1023.7C351.067 1026.43 350.267 1029.7 350.267 1033.5C350.267 1037.23 351.067 1040.53 352.667 1043.4C354.267 1046.2 356.401 1048.37 359.067 1049.9C361.734 1051.43 364.767 1052.2 368.167 1052.2ZM468.799 1060.8C463.399 1060.8 458.433 1059.93 453.899 1058.2C449.366 1056.4 445.433 1053.9 442.099 1050.7C438.766 1047.43 436.166 1043.63 434.299 1039.3C432.433 1034.97 431.499 1030.2 431.499 1025C431.499 1019.8 432.433 1015.03 434.299 1010.7C436.166 1006.37 438.766 1002.6 442.099 999.4C445.499 996.133 449.466 993.633 453.999 991.9C458.533 990.1 463.533 989.2 468.999 989.2C474.533 989.2 479.599 990.1 484.199 991.9C488.799 993.7 492.699 996.4 495.899 1000L489.699 1006.2C486.833 1003.4 483.699 1001.37 480.299 1000.1C476.966 998.767 473.333 998.1 469.399 998.1C465.399 998.1 461.666 998.767 458.199 1000.1C454.799 1001.43 451.833 1003.3 449.299 1005.7C446.833 1008.1 444.899 1010.97 443.499 1014.3C442.166 1017.57 441.499 1021.13 441.499 1025C441.499 1028.8 442.166 1032.37 443.499 1035.7C444.899 1038.97 446.833 1041.83 449.299 1044.3C451.833 1046.7 454.799 1048.57 458.199 1049.9C461.599 1051.23 465.299 1051.9 469.299 1051.9C473.033 1051.9 476.599 1051.33 479.999 1050.2C483.466 1049 486.666 1047.03 489.599 1044.3L495.299 1051.9C491.833 1054.83 487.766 1057.07 483.099 1058.6C478.499 1060.07 473.733 1060.8 468.799 1060.8ZM485.699 1050.6V1024.6H495.299V1051.9L485.699 1050.6ZM545.945 1060V1048.8L545.445 1046.7V1027.6C545.445 1023.53 544.245 1020.4 541.845 1018.2C539.512 1015.93 535.979 1014.8 531.245 1014.8C528.112 1014.8 525.045 1015.33 522.045 1016.4C519.045 1017.4 516.512 1018.77 514.445 1020.5L510.445 1013.3C513.179 1011.1 516.445 1009.43 520.245 1008.3C524.112 1007.1 528.145 1006.5 532.345 1006.5C539.612 1006.5 545.212 1008.27 549.145 1011.8C553.079 1015.33 555.045 1020.73 555.045 1028V1060H545.945ZM528.545 1060.6C524.612 1060.6 521.145 1059.93 518.145 1058.6C515.212 1057.27 512.945 1055.43 511.345 1053.1C509.745 1050.7 508.945 1048 508.945 1045C508.945 1042.13 509.612 1039.53 510.945 1037.2C512.345 1034.87 514.579 1033 517.645 1031.6C520.779 1030.2 524.979 1029.5 530.245 1029.5H547.045V1036.4H530.645C525.845 1036.4 522.612 1037.2 520.945 1038.8C519.279 1040.4 518.445 1042.33 518.445 1044.6C518.445 1047.2 519.479 1049.3 521.545 1050.9C523.612 1052.43 526.479 1053.2 530.145 1053.2C533.745 1053.2 536.879 1052.4 539.545 1050.8C542.279 1049.2 544.245 1046.87 545.445 1043.8L547.345 1050.4C546.079 1053.53 543.845 1056.03 540.645 1057.9C537.445 1059.7 533.412 1060.6 528.545 1060.6ZM572.811 1060V985.8H582.411V1060H572.811ZM600.741 1060V985.8H610.341V1060H600.741ZM628.67 1060V1007H638.27V1060H628.67ZM633.47 996.8C631.604 996.8 630.037 996.2 628.77 995C627.57 993.8 626.97 992.333 626.97 990.6C626.97 988.8 627.57 987.3 628.77 986.1C630.037 984.9 631.604 984.3 633.47 984.3C635.337 984.3 636.87 984.9 638.07 986.1C639.337 987.233 639.97 988.667 639.97 990.4C639.97 992.2 639.37 993.733 638.17 995C636.97 996.2 635.404 996.8 633.47 996.8ZM680.055 1036.7V1028.4H706.955V1036.7H680.055ZM781.592 1060.8C776.192 1060.8 771.226 1059.93 766.692 1058.2C762.159 1056.4 758.226 1053.9 754.892 1050.7C751.559 1047.43 748.959 1043.63 747.092 1039.3C745.226 1034.97 744.292 1030.2 744.292 1025C744.292 1019.8 745.226 1015.03 747.092 1010.7C748.959 1006.37 751.559 1002.6 754.892 999.4C758.292 996.133 762.259 993.633 766.792 991.9C771.326 990.1 776.326 989.2 781.792 989.2C787.326 989.2 792.392 990.1 796.992 991.9C801.592 993.7 805.492 996.4 808.692 1000L802.492 1006.2C799.626 1003.4 796.492 1001.37 793.092 1000.1C789.759 998.767 786.126 998.1 782.192 998.1C778.192 998.1 774.459 998.767 770.992 1000.1C767.592 1001.43 764.626 1003.3 762.092 1005.7C759.626 1008.1 757.692 1010.97 756.292 1014.3C754.959 1017.57 754.292 1021.13 754.292 1025C754.292 1028.8 754.959 1032.37 756.292 1035.7C757.692 1038.97 759.626 1041.83 762.092 1044.3C764.626 1046.7 767.592 1048.57 770.992 1049.9C774.392 1051.23 778.092 1051.9 782.092 1051.9C785.826 1051.9 789.392 1051.33 792.792 1050.2C796.259 1049 799.459 1047.03 802.392 1044.3L808.092 1051.9C804.626 1054.83 800.559 1057.07 795.892 1058.6C791.292 1060.07 786.526 1060.8 781.592 1060.8ZM798.492 1050.6V1024.6H808.092V1051.9L798.492 1050.6ZM825.838 1060V1007H835.438V1060H825.838ZM830.638 996.8C828.772 996.8 827.205 996.2 825.938 995C824.738 993.8 824.138 992.333 824.138 990.6C824.138 988.8 824.738 987.3 825.938 986.1C827.205 984.9 828.772 984.3 830.638 984.3C832.505 984.3 834.038 984.9 835.238 986.1C836.505 987.233 837.138 988.667 837.138 990.4C837.138 992.2 836.538 993.733 835.338 995C834.138 996.2 832.572 996.8 830.638 996.8ZM876.468 1060.6C871.135 1060.6 866.401 1059.43 862.268 1057.1C858.135 1054.77 854.868 1051.57 852.468 1047.5C850.068 1043.37 848.868 1038.7 848.868 1033.5C848.868 1028.23 850.068 1023.57 852.468 1019.5C854.868 1015.43 858.135 1012.27 862.268 1010C866.401 1007.67 871.135 1006.5 876.468 1006.5C881.735 1006.5 886.435 1007.67 890.568 1010C894.768 1012.27 898.035 1015.43 900.368 1019.5C902.768 1023.5 903.968 1028.17 903.968 1033.5C903.968 1038.77 902.768 1043.43 900.368 1047.5C898.035 1051.57 894.768 1054.77 890.568 1057.1C886.435 1059.43 881.735 1060.6 876.468 1060.6ZM876.468 1052.2C879.868 1052.2 882.901 1051.43 885.568 1049.9C888.301 1048.37 890.435 1046.2 891.968 1043.4C893.501 1040.53 894.268 1037.23 894.268 1033.5C894.268 1029.7 893.501 1026.43 891.968 1023.7C890.435 1020.9 888.301 1018.73 885.568 1017.2C882.901 1015.67 879.868 1014.9 876.468 1014.9C873.068 1014.9 870.035 1015.67 867.368 1017.2C864.701 1018.73 862.568 1020.9 860.968 1023.7C859.368 1026.43 858.568 1029.7 858.568 1033.5C858.568 1037.23 859.368 1040.53 860.968 1043.4C862.568 1046.2 864.701 1048.37 867.368 1049.9C870.035 1051.43 873.068 1052.2 876.468 1052.2ZM917.245 1060V1007H926.445V1021.4L925.545 1017.8C927.011 1014.13 929.478 1011.33 932.945 1009.4C936.411 1007.47 940.678 1006.5 945.745 1006.5V1015.8C945.345 1015.73 944.945 1015.7 944.545 1015.7C944.211 1015.7 943.878 1015.7 943.545 1015.7C938.411 1015.7 934.345 1017.23 931.345 1020.3C928.345 1023.37 926.845 1027.8 926.845 1033.6V1060H917.245ZM980.288 1080C975.422 1080 970.688 1079.3 966.088 1077.9C961.555 1076.57 957.855 1074.63 954.988 1072.1L959.588 1064.7C962.055 1066.83 965.088 1068.5 968.688 1069.7C972.288 1070.97 976.055 1071.6 979.988 1071.6C986.255 1071.6 990.855 1070.13 993.788 1067.2C996.722 1064.27 998.188 1059.8 998.188 1053.8V1042.6L999.188 1032.1L998.688 1021.5V1007H1007.79V1052.8C1007.79 1062.13 1005.45 1069 1000.79 1073.4C996.122 1077.8 989.288 1080 980.288 1080ZM979.088 1057.8C973.955 1057.8 969.355 1056.73 965.288 1054.6C961.288 1052.4 958.088 1049.37 955.688 1045.5C953.355 1041.63 952.188 1037.17 952.188 1032.1C952.188 1026.97 953.355 1022.5 955.688 1018.7C958.088 1014.83 961.288 1011.83 965.288 1009.7C969.355 1007.57 973.955 1006.5 979.088 1006.5C983.622 1006.5 987.755 1007.43 991.488 1009.3C995.222 1011.1 998.188 1013.9 1000.39 1017.7C1002.65 1021.5 1003.79 1026.3 1003.79 1032.1C1003.79 1037.83 1002.65 1042.6 1000.39 1046.4C998.188 1050.2 995.222 1053.07 991.488 1055C987.755 1056.87 983.622 1057.8 979.088 1057.8ZM980.188 1049.4C983.722 1049.4 986.855 1048.67 989.588 1047.2C992.322 1045.73 994.455 1043.7 995.988 1041.1C997.588 1038.5 998.388 1035.5 998.388 1032.1C998.388 1028.7 997.588 1025.7 995.988 1023.1C994.455 1020.5 992.322 1018.5 989.588 1017.1C986.855 1015.63 983.722 1014.9 980.188 1014.9C976.655 1014.9 973.488 1015.63 970.688 1017.1C967.955 1018.5 965.788 1020.5 964.188 1023.1C962.655 1025.7 961.888 1028.7 961.888 1032.1C961.888 1035.5 962.655 1038.5 964.188 1041.1C965.788 1043.7 967.955 1045.73 970.688 1047.2C973.488 1048.67 976.655 1049.4 980.188 1049.4ZM1026.13 1060V1007H1035.73V1060H1026.13ZM1030.93 996.8C1029.06 996.8 1027.5 996.2 1026.23 995C1025.03 993.8 1024.43 992.333 1024.43 990.6C1024.43 988.8 1025.03 987.3 1026.23 986.1C1027.5 984.9 1029.06 984.3 1030.93 984.3C1032.8 984.3 1034.33 984.9 1035.53 986.1C1036.8 987.233 1037.43 988.667 1037.43 990.4C1037.43 992.2 1036.83 993.733 1035.63 995C1034.43 996.2 1032.86 996.8 1030.93 996.8ZM1076.76 1060.6C1071.43 1060.6 1066.69 1059.43 1062.56 1057.1C1058.43 1054.77 1055.16 1051.57 1052.76 1047.5C1050.36 1043.37 1049.16 1038.7 1049.16 1033.5C1049.16 1028.23 1050.36 1023.57 1052.76 1019.5C1055.16 1015.43 1058.43 1012.27 1062.56 1010C1066.69 1007.67 1071.43 1006.5 1076.76 1006.5C1082.03 1006.5 1086.73 1007.67 1090.86 1010C1095.06 1012.27 1098.33 1015.43 1100.66 1019.5C1103.06 1023.5 1104.26 1028.17 1104.26 1033.5C1104.26 1038.77 1103.06 1043.43 1100.66 1047.5C1098.33 1051.57 1095.06 1054.77 1090.86 1057.1C1086.73 1059.43 1082.03 1060.6 1076.76 1060.6ZM1076.76 1052.2C1080.16 1052.2 1083.19 1051.43 1085.86 1049.9C1088.59 1048.37 1090.73 1046.2 1092.26 1043.4C1093.79 1040.53 1094.56 1037.23 1094.56 1033.5C1094.56 1029.7 1093.79 1026.43 1092.26 1023.7C1090.73 1020.9 1088.59 1018.73 1085.86 1017.2C1083.19 1015.67 1080.16 1014.9 1076.76 1014.9C1073.36 1014.9 1070.33 1015.67 1067.66 1017.2C1064.99 1018.73 1062.86 1020.9 1061.26 1023.7C1059.66 1026.43 1058.86 1029.7 1058.86 1033.5C1058.86 1037.23 1059.66 1040.53 1061.26 1043.4C1062.86 1046.2 1064.99 1048.37 1067.66 1049.9C1070.33 1051.43 1073.36 1052.2 1076.76 1052.2ZM1145.79 1060V990H1173.09C1179.23 990 1184.46 990.967 1188.79 992.9C1193.13 994.833 1196.46 997.633 1198.79 1001.3C1201.13 1004.97 1202.29 1009.33 1202.29 1014.4C1202.29 1019.47 1201.13 1023.83 1198.79 1027.5C1196.46 1031.1 1193.13 1033.87 1188.79 1035.8C1184.46 1037.73 1179.23 1038.7 1173.09 1038.7H1151.29L1155.79 1034.1V1060H1145.79ZM1192.59 1060L1174.79 1034.6H1185.49L1203.49 1060H1192.59ZM1155.79 1035.1L1151.29 1030.2H1172.79C1179.19 1030.2 1184.03 1028.83 1187.29 1026.1C1190.63 1023.3 1192.29 1019.4 1192.29 1014.4C1192.29 1009.4 1190.63 1005.53 1187.29 1002.8C1184.03 1000.07 1179.19 998.7 1172.79 998.7H1151.29L1155.79 993.7V1035.1ZM1240.65 1060.6C1234.98 1060.6 1229.98 1059.43 1225.65 1057.1C1221.38 1054.77 1218.05 1051.57 1215.65 1047.5C1213.32 1043.43 1212.15 1038.77 1212.15 1033.5C1212.15 1028.23 1213.28 1023.57 1215.55 1019.5C1217.88 1015.43 1221.05 1012.27 1225.05 1010C1229.12 1007.67 1233.68 1006.5 1238.75 1006.5C1243.88 1006.5 1248.42 1007.63 1252.35 1009.9C1256.28 1012.17 1259.35 1015.37 1261.55 1019.5C1263.82 1023.57 1264.95 1028.33 1264.95 1033.8C1264.95 1034.2 1264.92 1034.67 1264.85 1035.2C1264.85 1035.73 1264.82 1036.23 1264.75 1036.7H1219.65V1029.8H1259.75L1255.85 1032.2C1255.92 1028.8 1255.22 1025.77 1253.75 1023.1C1252.28 1020.43 1250.25 1018.37 1247.65 1016.9C1245.12 1015.37 1242.15 1014.6 1238.75 1014.6C1235.42 1014.6 1232.45 1015.37 1229.85 1016.9C1227.25 1018.37 1225.22 1020.47 1223.75 1023.2C1222.28 1025.87 1221.55 1028.93 1221.55 1032.4V1034C1221.55 1037.53 1222.35 1040.7 1223.95 1043.5C1225.62 1046.23 1227.92 1048.37 1230.85 1049.9C1233.78 1051.43 1237.15 1052.2 1240.95 1052.2C1244.08 1052.2 1246.92 1051.67 1249.45 1050.6C1252.05 1049.53 1254.32 1047.93 1256.25 1045.8L1261.55 1052C1259.15 1054.8 1256.15 1056.93 1252.55 1058.4C1249.02 1059.87 1245.05 1060.6 1240.65 1060.6ZM1306.58 1006.5C1310.91 1006.5 1314.71 1007.33 1317.98 1009C1321.31 1010.67 1323.91 1013.2 1325.78 1016.6C1327.65 1020 1328.58 1024.3 1328.58 1029.5V1060H1318.98V1030.6C1318.98 1025.47 1317.71 1021.6 1315.18 1019C1312.71 1016.4 1309.21 1015.1 1304.68 1015.1C1301.28 1015.1 1298.31 1015.77 1295.78 1017.1C1293.25 1018.43 1291.28 1020.4 1289.88 1023C1288.55 1025.6 1287.88 1028.83 1287.88 1032.7V1060H1278.28V1007H1287.48V1021.3L1285.98 1017.5C1287.71 1014.03 1290.38 1011.33 1293.98 1009.4C1297.58 1007.47 1301.78 1006.5 1306.58 1006.5ZM1369.55 1080C1364.68 1080 1359.95 1079.3 1355.35 1077.9C1350.81 1076.57 1347.11 1074.63 1344.25 1072.1L1348.85 1064.7C1351.31 1066.83 1354.35 1068.5 1357.95 1069.7C1361.55 1070.97 1365.31 1071.6 1369.25 1071.6C1375.51 1071.6 1380.11 1070.13 1383.05 1067.2C1385.98 1064.27 1387.45 1059.8 1387.45 1053.8V1042.6L1388.45 1032.1L1387.95 1021.5V1007H1397.05V1052.8C1397.05 1062.13 1394.71 1069 1390.05 1073.4C1385.38 1077.8 1378.55 1080 1369.55 1080ZM1368.35 1057.8C1363.21 1057.8 1358.61 1056.73 1354.55 1054.6C1350.55 1052.4 1347.35 1049.37 1344.95 1045.5C1342.61 1041.63 1341.45 1037.17 1341.45 1032.1C1341.45 1026.97 1342.61 1022.5 1344.95 1018.7C1347.35 1014.83 1350.55 1011.83 1354.55 1009.7C1358.61 1007.57 1363.21 1006.5 1368.35 1006.5C1372.88 1006.5 1377.01 1007.43 1380.75 1009.3C1384.48 1011.1 1387.45 1013.9 1389.65 1017.7C1391.91 1021.5 1393.05 1026.3 1393.05 1032.1C1393.05 1037.83 1391.91 1042.6 1389.65 1046.4C1387.45 1050.2 1384.48 1053.07 1380.75 1055C1377.01 1056.87 1372.88 1057.8 1368.35 1057.8ZM1369.45 1049.4C1372.98 1049.4 1376.11 1048.67 1378.85 1047.2C1381.58 1045.73 1383.71 1043.7 1385.25 1041.1C1386.85 1038.5 1387.65 1035.5 1387.65 1032.1C1387.65 1028.7 1386.85 1025.7 1385.25 1023.1C1383.71 1020.5 1381.58 1018.5 1378.85 1017.1C1376.11 1015.63 1372.98 1014.9 1369.45 1014.9C1365.91 1014.9 1362.75 1015.63 1359.95 1017.1C1357.21 1018.5 1355.05 1020.5 1353.45 1023.1C1351.91 1025.7 1351.15 1028.7 1351.15 1032.1C1351.15 1035.5 1351.91 1038.5 1353.45 1041.1C1355.05 1043.7 1357.21 1045.73 1359.95 1047.2C1362.75 1048.67 1365.91 1049.4 1369.45 1049.4ZM1437.69 1060.6C1433.16 1060.6 1429.16 1059.77 1425.69 1058.1C1422.29 1056.43 1419.62 1053.9 1417.69 1050.5C1415.82 1047.03 1414.89 1042.7 1414.89 1037.5V1007H1424.49V1036.4C1424.49 1041.6 1425.72 1045.5 1428.19 1048.1C1430.72 1050.7 1434.26 1052 1438.79 1052C1442.12 1052 1445.02 1051.33 1447.49 1050C1449.96 1048.6 1451.86 1046.6 1453.19 1044C1454.52 1041.33 1455.19 1038.13 1455.19 1034.4V1007H1464.79V1060H1455.69V1045.7L1457.19 1049.5C1455.46 1053.03 1452.86 1055.77 1449.39 1057.7C1445.92 1059.63 1442.02 1060.6 1437.69 1060.6ZM1506.16 1060.6C1500.76 1060.6 1495.93 1059.43 1491.66 1057.1C1487.46 1054.77 1484.16 1051.57 1481.76 1047.5C1479.36 1043.43 1478.16 1038.77 1478.16 1033.5C1478.16 1028.23 1479.36 1023.57 1481.76 1019.5C1484.16 1015.43 1487.46 1012.27 1491.66 1010C1495.93 1007.67 1500.76 1006.5 1506.16 1006.5C1510.96 1006.5 1515.23 1007.47 1518.96 1009.4C1522.76 1011.27 1525.7 1014.07 1527.76 1017.8L1520.46 1022.5C1518.73 1019.9 1516.6 1018 1514.06 1016.8C1511.6 1015.53 1508.93 1014.9 1506.06 1014.9C1502.6 1014.9 1499.5 1015.67 1496.76 1017.2C1494.03 1018.73 1491.86 1020.9 1490.26 1023.7C1488.66 1026.43 1487.86 1029.7 1487.86 1033.5C1487.86 1037.3 1488.66 1040.6 1490.26 1043.4C1491.86 1046.2 1494.03 1048.37 1496.76 1049.9C1499.5 1051.43 1502.6 1052.2 1506.06 1052.2C1508.93 1052.2 1511.6 1051.6 1514.06 1050.4C1516.6 1049.13 1518.73 1047.2 1520.46 1044.6L1527.76 1049.2C1525.7 1052.87 1522.76 1055.7 1518.96 1057.7C1515.23 1059.63 1510.96 1060.6 1506.16 1060.6ZM1562.51 1060.6C1557.11 1060.6 1552.28 1059.43 1548.01 1057.1C1543.81 1054.77 1540.51 1051.57 1538.11 1047.5C1535.71 1043.43 1534.51 1038.77 1534.51 1033.5C1534.51 1028.23 1535.71 1023.57 1538.11 1019.5C1540.51 1015.43 1543.81 1012.27 1548.01 1010C1552.28 1007.67 1557.11 1006.5 1562.51 1006.5C1567.31 1006.5 1571.58 1007.47 1575.31 1009.4C1579.11 1011.27 1582.05 1014.07 1584.11 1017.8L1576.81 1022.5C1575.08 1019.9 1572.95 1018 1570.41 1016.8C1567.95 1015.53 1565.28 1014.9 1562.41 1014.9C1558.95 1014.9 1555.85 1015.67 1553.11 1017.2C1550.38 1018.73 1548.21 1020.9 1546.61 1023.7C1545.01 1026.43 1544.21 1029.7 1544.21 1033.5C1544.21 1037.3 1545.01 1040.6 1546.61 1043.4C1548.21 1046.2 1550.38 1048.37 1553.11 1049.9C1555.85 1051.43 1558.95 1052.2 1562.41 1052.2C1565.28 1052.2 1567.95 1051.6 1570.41 1050.4C1572.95 1049.13 1575.08 1047.2 1576.81 1044.6L1584.11 1049.2C1582.05 1052.87 1579.11 1055.7 1575.31 1057.7C1571.58 1059.63 1567.31 1060.6 1562.51 1060.6ZM1595.86 1060V1007H1605.46V1060H1595.86ZM1600.66 996.8C1598.79 996.8 1597.22 996.2 1595.96 995C1594.76 993.8 1594.16 992.333 1594.16 990.6C1594.16 988.8 1594.76 987.3 1595.96 986.1C1597.22 984.9 1598.79 984.3 1600.66 984.3C1602.52 984.3 1604.06 984.9 1605.26 986.1C1606.52 987.233 1607.16 988.667 1607.16 990.4C1607.16 992.2 1606.56 993.733 1605.36 995C1604.16 996.2 1602.59 996.8 1600.66 996.8Z" fill="url(#paint1_linear_444_41)"/>
<mask id="path-3-outside-1_444_41" maskUnits="userSpaceOnUse" x="208" y="480" width="930" height="302" fill="black">
<rect fill="white" x="208" y="480" width="930" height="302"/>
<path d="M400.2 491H479.4V771H400.2V491ZM292.2 771H213V491H292.2V771ZM405.8 661.8H286.6V596.2H405.8V661.8ZM555.266 771V491H683.266C708.866 491 730.866 495.133 749.266 503.4C767.932 511.667 782.332 523.667 792.466 539.4C802.599 554.867 807.666 573.267 807.666 594.6C807.666 615.667 802.599 633.933 792.466 649.4C782.332 664.867 767.932 676.867 749.266 685.4C730.866 693.667 708.866 697.8 683.266 697.8H599.266L634.466 663.4V771H555.266ZM634.466 671.8L599.266 635.4H678.466C694.999 635.4 707.266 631.8 715.266 624.6C723.532 617.4 727.666 607.4 727.666 594.6C727.666 581.533 723.532 571.4 715.266 564.2C707.266 557 694.999 553.4 678.466 553.4H599.266L634.466 517V671.8ZM1009.79 776.6C987.654 776.6 967.121 773.133 948.188 766.2C929.521 759 913.254 748.867 899.388 735.8C885.788 722.733 875.121 707.4 867.388 689.8C859.654 671.933 855.788 652.333 855.788 631C855.788 609.667 859.654 590.2 867.388 572.6C875.121 554.733 885.788 539.267 899.388 526.2C913.254 513.133 929.521 503.133 948.188 496.2C967.121 489 987.654 485.4 1009.79 485.4C1035.65 485.4 1058.72 489.933 1078.99 499C1099.52 508.067 1116.59 521.133 1130.19 538.2L1079.79 583.8C1070.72 573.133 1060.72 565 1049.79 559.4C1039.12 553.8 1027.12 551 1013.79 551C1002.32 551 991.788 552.867 982.188 556.6C972.588 560.333 964.321 565.8 957.388 573C950.721 579.933 945.388 588.333 941.388 598.2C937.654 608.067 935.788 619 935.788 631C935.788 643 937.654 653.933 941.388 663.8C945.388 673.667 950.721 682.2 957.388 689.4C964.321 696.333 972.588 701.667 982.188 705.4C991.788 709.133 1002.32 711 1013.79 711C1027.12 711 1039.12 708.2 1049.79 702.6C1060.72 697 1070.72 688.867 1079.79 678.2L1130.19 723.8C1116.59 740.6 1099.52 753.667 1078.99 763C1058.72 772.067 1035.65 776.6 1009.79 776.6Z"/>
</mask>
<path d="M400.2 491H479.4V771H400.2V491ZM292.2 771H213V491H292.2V771ZM405.8 661.8H286.6V596.2H405.8V661.8ZM555.266 771V491H683.266C708.866 491 730.866 495.133 749.266 503.4C767.932 511.667 782.332 523.667 792.466 539.4C802.599 554.867 807.666 573.267 807.666 594.6C807.666 615.667 802.599 633.933 792.466 649.4C782.332 664.867 767.932 676.867 749.266 685.4C730.866 693.667 708.866 697.8 683.266 697.8H599.266L634.466 663.4V771H555.266ZM634.466 671.8L599.266 635.4H678.466C694.999 635.4 707.266 631.8 715.266 624.6C723.532 617.4 727.666 607.4 727.666 594.6C727.666 581.533 723.532 571.4 715.266 564.2C707.266 557 694.999 553.4 678.466 553.4H599.266L634.466 517V671.8ZM1009.79 776.6C987.654 776.6 967.121 773.133 948.188 766.2C929.521 759 913.254 748.867 899.388 735.8C885.788 722.733 875.121 707.4 867.388 689.8C859.654 671.933 855.788 652.333 855.788 631C855.788 609.667 859.654 590.2 867.388 572.6C875.121 554.733 885.788 539.267 899.388 526.2C913.254 513.133 929.521 503.133 948.188 496.2C967.121 489 987.654 485.4 1009.79 485.4C1035.65 485.4 1058.72 489.933 1078.99 499C1099.52 508.067 1116.59 521.133 1130.19 538.2L1079.79 583.8C1070.72 573.133 1060.72 565 1049.79 559.4C1039.12 553.8 1027.12 551 1013.79 551C1002.32 551 991.788 552.867 982.188 556.6C972.588 560.333 964.321 565.8 957.388 573C950.721 579.933 945.388 588.333 941.388 598.2C937.654 608.067 935.788 619 935.788 631C935.788 643 937.654 653.933 941.388 663.8C945.388 673.667 950.721 682.2 957.388 689.4C964.321 696.333 972.588 701.667 982.188 705.4C991.788 709.133 1002.32 711 1013.79 711C1027.12 711 1039.12 708.2 1049.79 702.6C1060.72 697 1070.72 688.867 1079.79 678.2L1130.19 723.8C1116.59 740.6 1099.52 753.667 1078.99 763C1058.72 772.067 1035.65 776.6 1009.79 776.6Z" fill="url(#paint2_linear_444_41)"/>
<path d="M400.2 491V486H395.2V491H400.2ZM479.4 491H484.4V486H479.4V491ZM479.4 771V776H484.4V771H479.4ZM400.2 771H395.2V776H400.2V771ZM292.2 771V776H297.2V771H292.2ZM213 771H208V776H213V771ZM213 491V486H208V491H213ZM292.2 491H297.2V486H292.2V491ZM405.8 661.8V666.8H410.8V661.8H405.8ZM286.6 661.8H281.6V666.8H286.6V661.8ZM286.6 596.2V591.2H281.6V596.2H286.6ZM405.8 596.2H410.8V591.2H405.8V596.2ZM400.2 496H479.4V486H400.2V496ZM474.4 491V771H484.4V491H474.4ZM479.4 766H400.2V776H479.4V766ZM405.2 771V491H395.2V771H405.2ZM292.2 766H213V776H292.2V766ZM218 771V491H208V771H218ZM213 496H292.2V486H213V496ZM287.2 491V771H297.2V491H287.2ZM405.8 656.8H286.6V666.8H405.8V656.8ZM291.6 661.8V596.2H281.6V661.8H291.6ZM286.6 601.2H405.8V591.2H286.6V601.2ZM400.8 596.2V661.8H410.8V596.2H400.8ZM555.266 771H550.266V776H555.266V771ZM555.266 491V486H550.266V491H555.266ZM749.266 503.4L747.217 507.961L747.229 507.966L747.241 507.972L749.266 503.4ZM792.466 539.4L788.262 542.107L788.273 542.124L788.283 542.14L792.466 539.4ZM792.466 649.4L796.648 652.14L796.648 652.14L792.466 649.4ZM749.266 685.4L751.315 689.961L751.33 689.954L751.344 689.947L749.266 685.4ZM599.266 697.8L595.771 694.224L586.996 702.8H599.266V697.8ZM634.466 663.4H639.466V651.522L630.971 659.824L634.466 663.4ZM634.466 771V776H639.466V771H634.466ZM634.466 671.8L630.871 675.276L639.466 684.163V671.8H634.466ZM599.266 635.4V630.4H587.475L595.671 638.876L599.266 635.4ZM715.266 624.6L711.982 620.83L711.951 620.856L711.921 620.884L715.266 624.6ZM715.266 564.2L711.921 567.916L711.951 567.944L711.982 567.97L715.266 564.2ZM599.266 553.4L595.671 549.924L587.475 558.4H599.266V553.4ZM634.466 517H639.466V504.637L630.871 513.524L634.466 517ZM560.266 771V491H550.266V771H560.266ZM555.266 496H683.266V486H555.266V496ZM683.266 496C708.343 496 729.61 500.05 747.217 507.961L751.315 498.839C732.122 490.216 709.389 486 683.266 486V496ZM747.241 507.972C765.099 515.88 778.705 527.269 788.262 542.107L796.669 536.693C785.959 520.064 770.765 507.453 751.29 498.828L747.241 507.972ZM788.283 542.14C797.805 556.673 802.666 574.087 802.666 594.6H812.666C812.666 572.447 807.393 553.06 796.648 536.66L788.283 542.14ZM802.666 594.6C802.666 614.833 797.811 632.117 788.283 646.66L796.648 652.14C807.386 635.75 812.666 616.501 812.666 594.6H802.666ZM788.283 646.66C778.722 661.253 765.093 672.667 747.187 680.853L751.344 689.947C770.771 681.067 785.942 668.481 796.648 652.14L788.283 646.66ZM747.217 680.839C729.61 688.75 708.343 692.8 683.266 692.8V702.8C709.389 702.8 732.122 698.584 751.315 689.961L747.217 680.839ZM683.266 692.8H599.266V702.8H683.266V692.8ZM602.76 701.376L637.96 666.976L630.971 659.824L595.771 694.224L602.76 701.376ZM629.466 663.4V771H639.466V663.4H629.466ZM634.466 766H555.266V776H634.466V766ZM638.06 668.324L602.86 631.924L595.671 638.876L630.871 675.276L638.06 668.324ZM599.266 640.4H678.466V630.4H599.266V640.4ZM678.466 640.4C695.596 640.4 709.308 636.688 718.61 628.316L711.921 620.884C705.223 626.912 694.402 630.4 678.466 630.4V640.4ZM718.55 628.37C728.093 620.058 732.666 608.578 732.666 594.6H722.666C722.666 606.222 718.971 614.742 711.982 620.83L718.55 628.37ZM732.666 594.6C732.666 580.392 728.117 568.762 718.55 560.43L711.982 567.97C718.948 574.038 722.666 582.675 722.666 594.6H732.666ZM718.61 560.484C709.308 552.112 695.596 548.4 678.466 548.4V558.4C694.402 558.4 705.223 561.888 711.921 567.916L718.61 560.484ZM678.466 548.4H599.266V558.4H678.466V548.4ZM602.86 556.876L638.06 520.476L630.871 513.524L595.671 549.924L602.86 556.876ZM629.466 517V671.8H639.466V517H629.466ZM948.188 766.2L946.388 770.865L946.428 770.88L946.468 770.895L948.188 766.2ZM899.388 735.8L895.923 739.406L895.941 739.422L895.958 739.439L899.388 735.8ZM867.388 689.8L862.799 691.786L862.804 691.799L862.81 691.811L867.388 689.8ZM867.388 572.6L871.965 574.611L871.971 574.599L871.976 574.586L867.388 572.6ZM899.388 526.2L895.958 522.561L895.941 522.578L895.923 522.594L899.388 526.2ZM948.188 496.2L949.928 500.887L949.947 500.88L949.965 500.873L948.188 496.2ZM1078.99 499L1076.95 503.564L1076.96 503.569L1076.97 503.574L1078.99 499ZM1130.19 538.2L1133.54 541.908L1137.02 538.757L1134.1 535.084L1130.19 538.2ZM1079.79 583.8L1075.98 587.038L1079.32 590.968L1083.14 587.508L1079.79 583.8ZM1049.79 559.4L1047.46 563.827L1047.49 563.839L1047.51 563.85L1049.79 559.4ZM982.188 556.6L984 561.26L984 561.26L982.188 556.6ZM957.388 573L953.786 569.532L953.783 569.534L957.388 573ZM941.388 598.2L936.754 596.321L936.732 596.376L936.711 596.431L941.388 598.2ZM941.388 663.8L936.711 665.569L936.732 665.624L936.754 665.679L941.388 663.8ZM957.388 689.4L953.719 692.797L953.784 692.868L953.852 692.936L957.388 689.4ZM982.188 705.4L984 700.74L984 700.74L982.188 705.4ZM1049.79 702.6L1047.51 698.15L1047.49 698.161L1047.46 698.173L1049.79 702.6ZM1079.79 678.2L1083.14 674.492L1079.32 671.032L1075.98 674.962L1079.79 678.2ZM1130.19 723.8L1134.07 726.946L1137.05 723.268L1133.54 720.092L1130.19 723.8ZM1078.99 763L1081.03 767.564L1081.04 767.558L1081.06 767.552L1078.99 763ZM1009.79 771.6C988.183 771.6 968.238 768.218 949.907 761.505L946.468 770.895C966.004 778.049 987.125 781.6 1009.79 781.6V771.6ZM949.987 761.535C931.894 754.556 916.188 744.761 902.817 732.161L895.958 739.439C910.32 752.972 927.148 763.444 946.388 770.865L949.987 761.535ZM902.852 732.194C889.733 719.59 879.44 704.801 871.965 687.789L862.81 691.811C870.801 709.999 881.842 725.877 895.923 739.406L902.852 732.194ZM871.976 687.814C864.539 670.632 860.788 651.716 860.788 631H850.788C850.788 652.951 854.769 673.235 862.799 691.786L871.976 687.814ZM860.788 631C860.788 610.283 864.539 591.511 871.965 574.611L862.81 570.589C854.769 588.889 850.788 609.051 850.788 631H860.788ZM871.976 574.586C879.455 557.308 889.746 542.397 902.852 529.806L895.923 522.594C881.829 536.136 870.787 552.158 862.799 570.614L871.976 574.586ZM902.817 529.839C916.174 517.252 931.86 507.598 949.928 500.887L946.447 491.513C927.182 498.668 910.334 509.015 895.958 522.561L902.817 529.839ZM949.965 500.873C968.28 493.909 988.205 490.4 1009.79 490.4V480.4C987.103 480.4 965.962 484.091 946.41 491.527L949.965 500.873ZM1009.79 490.4C1035.07 490.4 1057.42 494.828 1076.95 503.564L1081.03 494.436C1060.02 485.038 1036.24 480.4 1009.79 480.4V490.4ZM1076.97 503.574C1096.78 512.324 1113.2 524.899 1126.28 541.316L1134.1 535.084C1119.98 517.367 1102.26 503.809 1081.01 494.426L1076.97 503.574ZM1126.83 534.492L1076.43 580.092L1083.14 587.508L1133.54 541.908L1126.83 534.492ZM1083.6 580.562C1074.16 569.464 1063.66 560.888 1052.07 554.95L1047.51 563.85C1057.78 569.112 1067.28 576.803 1075.98 587.038L1083.6 580.562ZM1052.11 554.973C1040.65 548.958 1027.84 546 1013.79 546V556C1026.4 556 1037.59 558.642 1047.46 563.827L1052.11 554.973ZM1013.79 546C1001.77 546 990.615 547.958 980.375 551.94L984 561.26C992.96 557.775 1002.87 556 1013.79 556V546ZM980.375 551.94C970.121 555.928 961.238 561.793 953.786 569.532L960.989 576.468C967.404 569.807 975.054 564.739 984 561.26L980.375 551.94ZM953.783 569.534C946.631 576.973 940.967 585.928 936.754 596.321L946.021 600.079C949.808 590.738 954.811 582.894 960.992 576.466L953.783 569.534ZM936.711 596.431C932.736 606.935 930.788 618.478 930.788 631H940.788C940.788 619.522 942.572 609.199 946.064 599.969L936.711 596.431ZM930.788 631C930.788 643.522 932.736 655.065 936.711 665.569L946.064 662.031C942.572 652.801 940.788 642.478 940.788 631H930.788ZM936.754 665.679C940.962 676.058 946.608 685.117 953.719 692.797L961.056 686.003C954.834 679.283 949.813 671.276 946.021 661.921L936.754 665.679ZM953.852 692.936C961.3 700.384 970.162 706.088 980.375 710.06L984 700.74C975.013 697.245 967.341 692.283 960.923 685.864L953.852 692.936ZM980.375 710.06C990.615 714.042 1001.77 716 1013.79 716V706C1002.87 706 992.96 704.225 984 700.74L980.375 710.06ZM1013.79 716C1027.84 716 1040.65 713.042 1052.11 707.027L1047.46 698.173C1037.59 703.358 1026.4 706 1013.79 706V716ZM1052.07 707.05C1063.66 701.112 1074.16 692.536 1083.6 681.438L1075.98 674.962C1067.28 685.197 1057.78 692.888 1047.51 698.15L1052.07 707.05ZM1076.43 681.908L1126.83 727.508L1133.54 720.092L1083.14 674.492L1076.43 681.908ZM1126.3 720.654C1113.21 736.824 1096.78 749.422 1076.92 758.448L1081.06 767.552C1102.26 757.912 1119.96 744.376 1134.07 726.946L1126.3 720.654ZM1076.95 758.436C1057.42 767.172 1035.07 771.6 1009.79 771.6V781.6C1036.24 781.6 1060.02 776.962 1081.03 767.564L1076.95 758.436Z" fill="#E7E7E7" mask="url(#path-3-outside-1_444_41)"/>
<path d="M2419.45 255.804C2336.9 217.672 2351.69 170.271 2350.14 82C2409.83 102.224 2466.4 90.4268 2487.22 82C2487.22 184.386 2494.73 218.515 2419.45 255.804Z" fill="white"/>
<path d="M2419.53 246.324C2346.33 212.399 2359.44 170.226 2358.07 91.6914C2410.99 109.685 2461.15 99.1887 2479.61 91.6914C2479.61 182.784 2486.26 213.148 2419.53 246.324Z" fill="#D1D6E2"/>
<path fill-rule="evenodd" clip-rule="evenodd" d="M2357.95 139.303C2357.9 188.703 2362.72 219.997 2419.53 246.324C2473 219.741 2479.36 194.963 2479.77 139.303H2357.95Z" fill="#3D4781"/>
<ellipse cx="2418.65" cy="187.546" rx="47.0176" ry="44.873" fill="#ECC305"/>
<path fill-rule="evenodd" clip-rule="evenodd" d="M2479.57 114.865C2479.57 115.676 2479.58 116.481 2479.59 117.28C2479.6 120.198 2479.62 123.043 2479.64 125.82H2357.95C2357.98 122.257 2358.02 118.606 2358.04 114.865H2479.57Z" fill="#CF181F"/>
<path fill-rule="evenodd" clip-rule="evenodd" d="M2413.13 101.526C2417.05 101.64 2420.88 101.644 2424.61 101.557V139.302H2413.13V101.526Z" fill="#CF181F"/>
<path d="M2417.55 179.984C2417.41 177.259 2418.33 175.144 2418.82 174.427C2415.5 172.419 2417.91 171.081 2419.54 170.663C2421.12 167.651 2422.84 169.408 2423.5 170.663C2428.19 171.738 2424.22 174.427 2424.58 174.427C2424.87 174.427 2425.19 178.131 2425.31 179.984C2424.82 179.625 2425.27 180.593 2430.89 187.333C2436.52 194.072 2433.24 200.059 2430.89 202.21C2429.6 217.267 2432.4 224.975 2433.96 226.946C2426.75 230.388 2413.77 228.739 2408.18 227.484C2412.32 219.777 2409.62 218.522 2411.42 215.654C2412.87 213.359 2412.51 204.301 2412.15 200.059L2409.62 205.257L2406.92 202.21C2406.08 201.971 2404.32 201.206 2404.03 200.059C2403.67 198.625 2406.38 198.088 2407.46 198.088C2408.54 198.088 2412.15 188.408 2412.15 187.333C2412.15 186.472 2415.75 182.075 2417.55 179.984Z" fill="#1A1A33"/>
<rect x="2395.07" y="174.394" width="4.97438" height="45.1792" fill="#EEE59B"/>
<rect x="2440.26" y="174.394" width="4.97438" height="45.1792" fill="#EEE59B"/>
<rect x="2438.18" y="169.327" width="9.11969" height="6.33353" rx="3" fill="#EEE59B"/>
<rect x="2393" y="169.327" width="9.11969" height="6.33353" rx="3" fill="#EEE59B"/>
<path d="M2395.88 218.938C2395.18 218.874 2393.91 219.166 2394.24 220.84L2402.12 225.273C2402.39 222.88 2402.19 218.179 2399.22 218.517C2396.49 218.827 2395.86 218.924 2395.88 218.938Z" fill="#EEE59B"/>
<path d="M2444.07 218.743C2444.72 218.68 2445.9 218.971 2445.59 220.64L2438.26 225.062C2438.01 222.676 2438.2 217.987 2440.96 218.324C2443.5 218.633 2444.08 218.729 2444.07 218.743Z" fill="#EEE59B"/>
<path d="M2409.89 162.516C2401.76 161.671 2399.59 167.794 2399.52 170.96H2396C2396.33 161.333 2403.46 158.927 2406.99 158.927C2417.76 144.571 2427.5 152.945 2431.03 158.927C2440.81 157.238 2444.91 166.808 2445.74 171.805H2439.73C2440.06 162.516 2433.24 161.742 2429.78 162.516C2420.66 149.173 2412.72 156.956 2409.89 162.516Z" fill="#EEE59B"/>
<defs>
<linearGradient id="paint0_linear_444_41" x1="-322" y1="-114.5" x2="2864" y2="1502" gradientUnits="userSpaceOnUse">
<stop stop-color="#0710EF"/>
<stop offset="1" stop-color="#7A97FF"/>
</linearGradient>
<linearGradient id="paint1_linear_444_41" x1="957" y1="841" x2="957" y2="1085" gradientUnits="userSpaceOnUse">
<stop stop-color="white"/>
<stop offset="1" stop-color="#F2F2F2"/>
</linearGradient>
<linearGradient id="paint2_linear_444_41" x1="661.5" y1="384" x2="661.5" y2="872" gradientUnits="userSpaceOnUse">
<stop stop-color="white"/>
<stop offset="1" stop-color="#F2F2F2"/>
</linearGradient>
</defs>
</svg>
